# xmcd
#
# Track frame offsets:
#	150
#	13087
#	23047
#	40355
#	50260
#	56462
#	70302
#	89177
#	102550
#	112707
#	129752
#	143635
#	164435
#	175612
#
# Disc length: 2585 seconds
#
# Revision: 1
# Processed by: cddbd v1.5.1PL0 Copyright (c) Steve Scherf et al.
# Submitted via: CDex 1.50Beta5
#
DISCID=b50a170e
DTITLE=Various Artist - GREEN DAYS
DYEAR=1900
DGENRE=Rock
TTITLE0=SUMMER RHYME/2000 LIGHT YEARS AWAY
TTITLE1=SABOTEN/PULLING TEETH
TTITLE2=BACK LASH/BASKET CASE
TTITLE3=PINKLOOP/SHE
TTITLE4=MASA SUCKS&SHACHI/IN THE END
TTITLE5=SKANK PUNKS/NICE GUYS FINISH LAST
TTITLE6=髑髏首/HITCHIN' A RIDE
TTITLE7=maegashira/SCATTERED
TTITLE8=Parking Out/GOOD RIDDANCE(TIME OF YOUR LIFE)
TTITLE9=FUNGUS/BLOOD,SEX AND BOOZE
TTITLE10=STEREO VISION/CHURCH ON SUNDAY
TTITLE11=OXYDOL/MISERY
TTITLE12=FULL MONTY/MINORITY
TTITLE13=Daisuke+73/WHEN I COME AROUND
EXTD=
EXTT0=
EXTT1=
EXTT2=
EXTT3=
EXTT4=
EXTT5=
EXTT6=
EXTT7=
EXTT8=
EXTT9=
EXTT10=
EXTT11=
EXTT12=
EXTT13=
PLAYORDER=
